<svg xmlns="http://www.w3.org/2000/svg" viewBox="0 0 900 340" role="img" width="100%" style="max-width:900px;height:auto;font-family:ui-sans-serif,system-ui,-apple-system,Segoe UI,Roboto,Helvetica,Arial,sans-serif;">
<style>
      .kicker { font-size:11px; font-weight:600; letter-spacing:.16em; fill:#8a8a8a; }
      .group  { font-size:11px; font-weight:600; letter-spacing:.14em; fill:#2d6a4f; }
      .step   { font-size:11px; font-weight:600; letter-spacing:.12em; }
      .step .num  { fill:#2d6a4f; }
      .step .word { fill:#8a8a8a; }
    </style>
<rect x="0.5" y="0.5" width="899" height="339" rx="16" fill="#ffffff" stroke="#e7e7e7"/>
<text x="40" y="44" class="kicker">BIOMIMICRY MECHANISM</text>
<circle cx="812" cy="40" r="3" fill="#2d6a4f"/>
<text x="860" y="44" class="group" text-anchor="end">MAKE</text>
<line x1="40" y1="64" x2="860" y2="64" stroke="#e7e7e7"/>
<path d="M 285 207 L 295 214 L 285 221" fill="none" stroke="#8a8a8a" stroke-width="1.5" stroke-linecap="round" stroke-linejoin="round" opacity="0.75"/>
<path d="M 565 207 L 575 214 L 565 221" fill="none" stroke="#8a8a8a" stroke-width="1.5" stroke-linecap="round" stroke-linejoin="round" opacity="0.75"/>
<text x="58" y="120" class="step"><tspan class="num">01</tspan><tspan dx="8" class="word">ORGANISM</tspan></text>
<text x="58" y="148.5" text-anchor="start" style="font-size:16.5px;font-weight:700;fill:#1a1a1a;">
<tspan x="58" dy="0.0">Fire ant</tspan>
</text>
<text x="58" y="198.5" text-anchor="start" style="font-size:12.5px;font-weight:400;fill:#5b5b5b;">
<tspan x="58" dy="0.0">When flooded, thousands of</tspan>
<tspan x="58" dy="16.2">fire ants link legs and</tspan>
<tspan x="58" dy="16.2">bodies into a</tspan>
<tspan x="58" dy="16.2">self-assembling</tspan>
</text>
<text x="338" y="120" class="step"><tspan class="num">02</tspan><tspan dx="8" class="word">MECHANISM</tspan></text>
<circle cx="430" cy="176" r="46" fill="#f6f8f6"/>
<path d="M 388 150 l 64 0 l 12 -9 l -64 0 z" fill="none" stroke="#2d6a4f" stroke-width="1.6" stroke-linecap="round" stroke-linejoin="round"/><path d="M 398 168 l 64 0 l 12 -9 l -64 0 z" fill="none" stroke="#2d6a4f" stroke-width="1.6" stroke-linecap="round" stroke-linejoin="round"/><path d="M 388 186 l 64 0 l 12 -9 l -64 0 z" fill="none" stroke="#2d6a4f" stroke-width="1.6" stroke-linecap="round" stroke-linejoin="round"/><path d="M 398 204 l 64 0 l 12 -9 l -64 0 z" fill="none" stroke="#2d6a4f" stroke-width="1.6" stroke-linecap="round" stroke-linejoin="round"/>
<text x="338" y="240.0" text-anchor="start" style="font-size:12.0px;font-weight:400;fill:#5b5b5b;">
<tspan x="338" dy="0.0">Individual units with simple</tspan>
<tspan x="338" dy="15.6">local rules (grab a neighbor,</tspan>
<tspan x="338" dy="15.6">don&#39;t let go unless you&#39;re on</tspan>
<tspan x="338" dy="15.6">top) collectively produce a</tspan>
<tspan x="338" dy="15.6">stable</tspan>
</text>
<text x="618" y="120" class="step"><tspan class="num">03</tspan><tspan dx="8" class="word">APPLICATION</tspan></text>
<text x="618" y="145.0" text-anchor="start" style="font-size:13.0px;font-weight:600;fill:#1a1a1a;">
<tspan x="618" dy="0.0">Self-assembling modular</tspan>
<tspan x="618" dy="16.9">robots, reconfigurable soft</tspan>
<tspan x="618" dy="16.9">structures for</tspan>
<tspan x="618" dy="16.9">search-and-rescue</tspan>
</text>
<text x="618" y="271.0" text-anchor="start" style="font-size:11.0px;font-weight:400;fill:#8a8a8a;">
<tspan x="618" dy="0.0">Real-world: Georgia Tech fire</tspan>
<tspan x="618" dy="14.3">ant robotics research; MIT CSAIL</tspan>
<tspan x="618" dy="14.3">modular robot swarms</tspan>
</text>
</svg>